# xmcd
#
# Track frame offsets:
#	150
#	14650
#	31426
#	55908
#	71980
#	91052
#	104707
#	120106
#	136639
#	161438
#	180641
#
# Disc length: 2614 seconds
#
# Revision: 0
# Processed by: cddbd v1.5.2PL0 Copyright (c) Steve Scherf et al.
# Submitted via: dBpowerAMP V4.0
#
DISCID=8d0a340b
DTITLE=Bintangs - Genuine bull
DYEAR=1975
DGENRE=Blues
TTITLE0=Hobo man
TTITLE1=Insight, inside out
TTITLE2=Agnes grey
TTITLE3=Open and busted
TTITLE4=Biyou woman
TTITLE5=New Orleas, New Orleans
TTITLE6=Handmade, High Heeled, Fleshcoloured boots
TTITLE7=Travelin'mood
TTITLE8=Do John
TTITLE9=Cold war generation kids
TTITLE10=Gone dead train
EXTD=Deluxe Edition 22 new songs
EXTT0=
EXTT1=
EXTT2=
EXTT3=
EXTT4=
EXTT5=
EXTT6=
EXTT7=
EXTT8=
EXTT9=
EXTT10=
PLAYORDER=
